<svg fill="none" height="22" viewBox="0 0 22 22" width="22" xmlns="http://www.w3.org/2000/svg" xmlns:xlink="http://www.w3.org/1999/xlink"><clipPath id="a"><path d="m3 3h16v16h-16z"/></clipPath><rect fill="#fff" height="21" rx="1.5" width="21" x=".5" y=".5"/><rect height="21" rx="1.5" stroke="#eaebee" width="21" x=".5" y=".5"/><g clip-path="url(#a)" clip-rule="evenodd" fill="#262930" fill-rule="evenodd"><path d="m9.25 3.9c-1.98823 0-3.6 1.61177-3.6 3.6 0 1.98822 1.61177 3.6 3.6 3.6.63522 0 1.232-.1645 1.7501-.4533.5184.2888 1.1156.4533 1.7499.4533 1.9882 0 3.6-1.61178 3.6-3.6 0-1.98823-1.6118-3.6-3.6-3.6-.6343 0-1.2315.16451-1.7499.45328-.5181-.28876-1.11488-.45328-1.7501-.45328zm-2.4 3.6c0-1.32548 1.07451-2.4 2.4-2.4 1.3255 0 2.4 1.07452 2.4 2.4s-1.0745 2.4-2.4 2.4c-1.32549 0-2.4-1.07452-2.4-2.4zm5.1781-2.28971c.5135.62226.8219 1.41997.8219 2.28971s-.3084 1.66745-.8219 2.28971c.2276.07165.47.11029.7219.11029 1.3254 0 2.4-1.07452 2.4-2.4s-1.0746-2.4-2.4-2.4c-.2519 0-.4943.03864-.7219.11029z"/><path d="m5.47343 18.1c-1.08531 0-1.81237-1.0717-1.50012-2.0806l.12678-.4096c.58878-1.9023 2.31433-3.2098 4.28095-3.2098h5.23786c1.9666 0 3.6922 1.3075 4.281 3.2098l.1267.4096c.3123 1.0089-.4148 2.0806-1.5001 2.0806zm4.64557-4.5h-1.73796c-1.42222 0-2.69588.9471-3.1346 2.3646l-.12678.4096c-.08698.281.12237.5258.35377.5258h7.55317c.2314 0 .4407-.2448.3537-.5258l-.1267-.4096c-.4388-1.4175-1.7124-2.3646-3.1346-2.3646zm4.4301 3.3c.0714-.2796.0697-.5828-.0224-.8806l-.1268-.4096c-.2443-.7893-.6843-1.4762-1.256-2.0098h.475c1.4222 0 2.6959.9471 3.1346 2.3646l.1268.4096c.087.281-.1224.5258-.3538.5258z"/></g></svg>